<svg xmlns="http://www.w3.org/2000/svg" xmlns:xlink="http://www.w3.org/1999/xlink" version="1.1" width="256" height="256" viewBox="0 0 256 256" xml:space="preserve">

<defs>
</defs>
<g style="stroke: none; stroke-width: 0; stroke-dasharray: none; stroke-linecap: butt; stroke-linejoin: miter; stroke-miterlimit: 10; fill: none; fill-rule: nonzero; opacity: 1;" transform="translate(1.4065934065934016 1.4065934065934016) scale(2.81 2.81)" >
	<path d="M 31.753 90 c -2.443 0 -4.719 -0.973 -6.407 -2.738 c -1.688 -1.766 -2.558 -4.082 -2.449 -6.523 l 1.986 -44.423 l -4.056 -4.244 c -2.496 -2.611 -3.831 -6.179 -3.663 -9.787 l 0.948 -20.377 c 0.052 -1.104 0.986 -1.96 2.091 -1.905 c 1.104 0.052 1.957 0.988 1.905 2.091 L 21.159 22.47 c -0.118 2.521 0.815 5.013 2.559 6.837 l 4.646 4.861 c 0.377 0.395 0.577 0.926 0.552 1.471 l -2.024 45.276 c -0.06 1.34 0.417 2.611 1.344 3.58 C 29.163 85.466 30.412 86 31.753 86 c 1.341 0 2.589 -0.533 3.516 -1.503 c 0.927 -0.969 1.404 -2.24 1.344 -3.579 L 34.589 35.64 c -0.024 -0.545 0.175 -1.077 0.552 -1.471 l 4.646 -4.861 c 1.744 -1.824 2.676 -4.316 2.559 -6.837 L 41.398 2.093 C 41.347 0.99 42.2 0.054 43.304 0.002 c 1.088 -0.058 2.039 0.802 2.091 1.905 l 0.947 20.377 c 0.168 3.609 -1.167 7.176 -3.663 9.787 l -4.056 4.244 l 1.985 44.424 c 0.109 2.44 -0.761 4.757 -2.449 6.522 C 36.471 89.027 34.195 90 31.753 90 z" style="stroke: none; stroke-width: 1; stroke-dasharray: none; stroke-linecap: butt; stroke-linejoin: miter; stroke-miterlimit: 10; fill: rgb(0,0,0); fill-rule: nonzero; opacity: 1;" transform=" matrix(1 0 0 1 0 0) " stroke-linecap="round" />
	<path d="M 27.65 26.709 c -1.104 0 -2 -0.895 -2 -2 V 2 c 0 -1.104 0.896 -2 2 -2 s 2 0.896 2 2 v 22.709 C 29.65 25.814 28.754 26.709 27.65 26.709 z" style="stroke: none; stroke-width: 1; stroke-dasharray: none; stroke-linecap: butt; stroke-linejoin: miter; stroke-miterlimit: 10; fill: rgb(0,0,0); fill-rule: nonzero; opacity: 1;" transform=" matrix(1 0 0 1 0 0) " stroke-linecap="round" />
	<path d="M 35.855 26.709 c -1.104 0 -2 -0.895 -2 -2 V 2 c 0 -1.104 0.896 -2 2 -2 c 1.104 0 2 0.896 2 2 v 22.709 C 37.855 25.814 36.96 26.709 35.855 26.709 z" style="stroke: none; stroke-width: 1; stroke-dasharray: none; stroke-linecap: butt; stroke-linejoin: miter; stroke-miterlimit: 10; fill: rgb(0,0,0); fill-rule: nonzero; opacity: 1;" transform=" matrix(1 0 0 1 0 0) " stroke-linecap="round" />
	<path d="M 63.986 90 c -2.443 0 -4.719 -0.973 -6.407 -2.738 s -2.559 -4.082 -2.449 -6.523 l 1.714 -25.687 h -0.476 c -1.804 0 -3.483 -0.808 -4.608 -2.217 c -1.126 -1.409 -1.544 -3.226 -1.146 -4.985 l 9.884 -43.707 C 61.05 1.703 63.18 0 65.679 0 c 2.93 0 5.312 2.383 5.312 5.312 v 47.671 l 1.849 27.711 c 0.112 2.484 -0.758 4.801 -2.446 6.566 S 66.43 90 63.986 90 z M 65.679 4 c -0.617 0 -1.144 0.421 -1.28 1.023 l -9.883 43.708 c -0.129 0.566 0.006 1.151 0.368 1.605 c 0.363 0.454 0.903 0.714 1.484 0.714 h 1.773 c 0.769 0 1.51 0.322 2.034 0.883 c 0.525 0.562 0.797 1.322 0.745 2.089 l -1.798 26.938 c -0.057 1.296 0.42 2.567 1.347 3.536 C 61.396 85.466 62.645 86 63.986 86 s 2.59 -0.533 3.517 -1.503 c 0.927 -0.969 1.403 -2.24 1.344 -3.579 l -1.851 -27.734 c -0.003 -0.044 -0.005 -0.089 -0.005 -0.133 V 5.313 C 66.991 4.589 66.402 4 65.679 4 z" style="stroke: none; stroke-width: 1; stroke-dasharray: none; stroke-linecap: butt; stroke-linejoin: miter; stroke-miterlimit: 10; fill: rgb(0,0,0); fill-rule: nonzero; opacity: 1;" transform=" matrix(1 0 0 1 0 0) " stroke-linecap="round" />
</g>
</svg>